<svg width="40" height="39" viewBox="0 0 40 39" fill="none" xmlns="http://www.w3.org/2000/svg">
<g id="LicecnceCheck-Logo 1" clip-path="url(#clip0_2953_1577)">
<g id="AppIcon - Outlines">
<g id="Group">
<g id="Background">
<path id="Vector" d="M39.5381 0H0.538086V38.9996H39.5381V0Z" fill="#1B3C56"/>
</g>
<path id="Vector_2" d="M31.2552 12.2842L34.2952 9.24385L33.3031 8.25171L30.263 11.2921L28.4947 9.52378L27.5026 10.5163L30.2627 13.2764L31.2552 12.2842Z" fill="#B7C1CA"/>
<path id="Vector_3" d="M31.6097 19.0986H29.1734L27.6975 15.7554C27.2672 14.7808 26.3021 14.1523 25.2364 14.1523H14.4973C13.4317 14.1523 12.467 14.7808 12.0362 15.7554L10.5604 19.0986H8.12404C8.03492 19.0986 7.96179 19.1717 7.96179 19.2608V21.0455C7.96179 21.1346 8.03492 21.2078 8.12404 21.2078H9.1813C9.01411 22.2277 8.73913 23.9679 8.66448 24.8141C8.57536 25.8219 8.85224 26.4636 8.95317 26.6601V30.5956C8.95317 30.7079 9.04496 30.7997 9.15731 30.7997H12.427C12.5393 30.7997 12.6311 30.7079 12.6311 30.5956V28.8882H27.1023V30.5956C27.1023 30.7079 27.194 30.7997 27.3064 30.7997H30.5761C30.6884 30.7997 30.7802 30.7079 30.7802 30.5956V26.6601C30.8815 26.4636 31.158 25.8219 31.0689 24.8141C30.9943 23.9679 30.7193 22.2277 30.5521 21.2078H31.6094C31.6985 21.2078 31.7716 21.1346 31.7716 21.0455V19.2608C31.7716 19.1717 31.6985 19.0986 31.6094 19.0986H31.6097ZM13.4976 16.8881C13.8472 16.094 14.6333 15.5825 15.5001 15.5825H24.2336C25.1001 15.5825 25.8866 16.094 26.2362 16.8881L27.2131 19.0986H12.5207L13.4976 16.8881ZM11.9433 25.0663C11.2856 25.0663 10.7535 24.5342 10.7535 23.8764C10.7535 23.2187 11.2856 22.6866 11.9433 22.6866C12.601 22.6866 13.1331 23.2187 13.1331 23.8764C13.1331 24.5342 12.5999 25.0663 11.9433 25.0663ZM24.1361 24.931C24.0527 25.0145 23.9381 25.0663 23.8116 25.0663H15.9218C15.7953 25.0663 15.6807 25.0145 15.5973 24.931C15.5139 24.8476 15.4621 24.733 15.4621 24.6066C15.4621 24.3533 15.6689 24.1469 15.9218 24.1469H23.8116C24.0649 24.1469 24.2713 24.3533 24.2713 24.6066C24.2713 24.733 24.2195 24.8476 24.1361 24.931ZM24.1361 23.1646C24.0527 23.248 23.9381 23.2998 23.8116 23.2998H15.9218C15.7953 23.2998 15.6807 23.248 15.5973 23.1646C15.5139 23.0812 15.4621 22.9654 15.4621 22.8401C15.4621 22.5869 15.6689 22.3804 15.9218 22.3804H23.8116C24.0649 22.3804 24.2713 22.5872 24.2713 22.8401C24.2713 22.9658 24.2195 23.0812 24.1361 23.1646ZM27.7905 25.0663C27.1339 25.0663 26.6007 24.5342 26.6007 23.8764C26.6007 23.2187 27.1339 22.6866 27.7905 22.6866C28.4471 22.6866 28.9803 23.2187 28.9803 23.8764C28.9803 24.5342 28.4482 25.0663 27.7905 25.0663Z" fill="white"/>
</g>
</g>
</g>
<defs>
<clipPath id="clip0_2953_1577">
<rect width="39" height="39" fill="white" transform="translate(0.538086)"/>
</clipPath>
</defs>
</svg>
